HIERARCHY
ROOT Hips
{
	OFFSET 0.000000 0.000000 0.000000
	CHANNELS 6 Xposition Yposition Zposition Zrotation Yrotation Xrotation 
	JOINT LHipJoint
	{
		OFFSET 0.000000 0.000000 0.000000
		CHANNELS 3 Zrotation Yrotation Xrotation
		JOINT LeftUpLeg
		{
			OFFSET 1.363060 -1.794630 0.839290
			CHANNELS 3 Zrotation Yrotation Xrotation
			JOINT LeftLeg
			{
				OFFSET 2.448110 -6.726130 0.000000
				CHANNELS 3 Zrotation Yrotation Xrotation
				JOINT LeftFoot
				{
					OFFSET 2.562200 -7.039590 0.000000
					CHANNELS 3 Zrotation Yrotation Xrotation
					JOINT LeftToeBase
					{
						OFFSET 0.157640 -0.433110 2.322550
						CHANNELS 3 Zrotation Yrotation Xrotation
						End Site
						{
							OFFSET 0.000000 0.000000 0.000000
						}
					}
				}
			}
		}
	}
	JOINT RHipJoint
	{
		OFFSET 0.000000 0.000000 0.000000
		CHANNELS 3 Zrotation Yrotation Xrotation
		JOINT RightUpLeg
		{
			OFFSET -1.305520 -1.794630 0.839290
			CHANNELS 3 Zrotation Yrotation Xrotation
			JOINT RightLeg
			{
				OFFSET -2.542530 -6.985550 0.000000
				CHANNELS 3 Zrotation Yrotation Xrotation
				JOINT RightFoot
				{
					OFFSET -2.568260 -7.056230 0.000000
					CHANNELS 3 Zrotation Yrotation Xrotation
					JOINT RightToeBase
					{
						OFFSET -0.164730 -0.452590 2.363150
						CHANNELS 3 Zrotation Yrotation Xrotation
						End Site
						{
							OFFSET 0.000000 0.000000 0.000000
						}
					}
				}
			}
		}
	}
}
MOTION
Frames: 28
Frame Time: 0.008333
-5.131415 17.092197 -1.154328 2.901546 -74.964591 -1.586230 -10.279832 3.477462 4.301274 -0.508663 5.199571 -9.160487 -1.590312 -0.493691 7.077346 0.757848 5.830024 -0.108640 0.806500 -0.000000 -51.079800 9.861984 -2.766985 0.203059 10.313398 -17.866621 -4.621608 1.791336 0.364961 12.329348 -2.985943 -13.653655 -11.006422 0.312400 0.000000 -56.765400
-5.122893 17.091077 -1.169242 3.025717 -75.280017 -1.676028 -10.301792 3.476040 4.251713 -0.479590 5.467457 -9.224323 -1.596049 -0.485599 7.093657 0.755908 5.813011 -0.066211 0.807000 -0.000000 -51.109900 9.844239 -2.745110 0.219656 10.369580 -17.682297 -4.771215 1.796702 0.354420 12.527078 -2.969258 -13.522998 -11.092614 0.334900 0.000000 -56.738100
-5.114528 17.089937 -1.184649 3.157773 -75.590261 -1.778552 -10.322941 3.474218 4.201454 -0.447454 5.718227 -9.280454 -1.600487 -0.475773 7.122183 0.754827 5.802345 -0.020960 0.808600 -0.000000 -51.118199 9.826996 -2.722364 0.233915 10.425294 -17.492128 -4.904815 1.800331 0.343819 12.717457 -2.955491 -13.407687 -11.178372 0.356800 0.000000 -56.693800
-5.106159 17.088731 -1.200564 3.295739 -75.895594 -1.895458 -10.343412 3.471800 4.149865 -0.411665 5.952256 -9.327022 -1.602954 -0.463965 7.163820 0.755547 5.805742 0.028251 0.812100 0.000001 -51.111400 9.810306 -2.698614 0.244950 10.479363 -17.298646 -5.019993 1.802411 0.333096 12.898735 -2.943935 -13.304941 -11.262163 0.377901 0.000000 -56.637900
-5.097930 17.087498 -1.216978 3.443684 -76.196053 -2.030049 -10.363003 3.469313 4.097203 -0.372132 6.169515 -9.361871 -1.603011 -0.450249 7.217919 0.759086 5.831478 0.081491 0.818800 -0.000000 -51.099600 9.794555 -2.674113 0.252273 10.530175 -17.106777 -5.115114 1.803307 0.322379 13.069688 -2.933465 -13.209671 -11.342997 0.398000 0.000001 -56.573100
-5.089906 17.086213 -1.233753 3.599076 -76.492946 -2.180012 -10.381889 3.466752 4.043501 -0.328929 6.373883 -9.386247 -1.600498 -0.434896 7.284465 0.766051 5.884160 0.136637 0.829100 -0.000001 -51.093401 9.779633 -2.649315 0.256400 10.577670 -16.918520 -5.191151 1.803500 0.311778 13.229291 -2.923107 -13.117526 -11.419279 0.416700 -0.000000 -56.510299
-5.082084 17.084876 -1.250832 3.762250 -76.786996 -2.346893 -10.399950 3.464486 3.989179 -0.282622 6.568044 -9.399769 -1.595452 -0.418211 7.361267 0.776786 5.966536 0.192548 0.843200 0.000000 -51.105600 9.765813 -2.624464 0.257551 10.620399 -16.737788 -5.248449 1.803394 0.301398 13.377543 -2.911711 -13.023037 -11.490640 0.434100 -0.000001 -56.450300
-5.074576 17.083477 -1.268051 3.930317 -77.079229 -2.526529 -10.417254 3.462643 3.934898 -0.233811 6.757029 -9.406351 -1.588381 -0.400718 7.447299 0.790963 6.075516 0.245983 0.860500 0.000000 -51.144500 9.752936 -2.600154 0.257137 10.659540 -16.565614 -5.290510 1.803438 0.291482 13.514079 -2.898615 -12.923123 -11.555831 0.449800 0.000000 -56.402000
-5.067591 17.082057 -1.285243 4.102000 -77.370168 -2.714621 -10.433803 3.461613 3.881489 -0.182952 6.946219 -9.410073 -1.580132 -0.382957 7.541577 0.807676 6.203388 0.293719 0.879800 -0.000000 -51.215800 9.740919 -2.577025 0.256777 10.696103 -16.402584 -5.320833 1.804005 0.282298 13.639812 -2.883407 -12.815321 -11.615490 0.464000 0.000000 -56.366700
-5.061085 17.080599 -1.302366 4.275656 -77.660448 -2.911144 -10.449588 3.461590 3.829158 -0.130944 7.141290 -9.413603 -1.571663 -0.365176 7.642844 0.825533 6.339043 0.334873 0.899400 -0.000000 -51.326400 9.729816 -2.555196 0.257601 10.730174 -16.248232 -5.341690 1.805108 0.273868 13.756751 -2.866058 -12.699009 -11.670909 0.477000 -0.000000 -56.339800
-5.055270 17.079139 -1.319254 4.447174 -77.950109 -3.107514 -10.464724 3.462698 3.778884 -0.077748 7.346222 -9.423901 -1.564128 -0.347765 7.752685 0.842794 6.467910 0.365724 0.917100 -0.000001 -51.468500 9.719199 -2.535269 0.261662 10.764740 -16.099770 -5.358131 1.806893 0.266427 13.866406 -2.847033 -12.575904 -11.722743 0.488900 0.000001 -56.323600
-5.050092 17.077652 -1.335974 4.616102 -78.238425 -3.304749 -10.479143 3.465086 3.730607 -0.024017 7.563561 -9.442921 -1.558421 -0.330566 7.872097 0.857756 6.576714 0.387348 0.930900 0.000000 -51.640800 9.709146 -2.517016 0.269522 10.799987 -15.955087 -5.371321 1.809027 0.259849 13.971578 -2.827041 -12.448777 -11.773227 0.500400 0.000000 -56.307300
-5.045629 17.076148 -1.352496 4.780829 -78.524644 -3.498492 -10.492862 3.468763 3.684723 0.030918 7.793700 -9.475207 -1.555317 -0.313460 8.004884 0.868892 6.652941 0.398223 0.939100 -0.000000 -51.826500 9.699410 -2.500464 0.282059 10.838080 -15.810887 -5.384335 1.811291 0.254081 14.075158 -2.807043 -12.321614 -11.824172 0.511800 -0.000000 -56.289000
-5.041793 17.074627 -1.368930 4.940836 -78.807875 -3.689500 -10.505801 3.473633 3.641099 0.087140 8.033561 -9.521514 -1.554971 -0.295923 8.155084 0.875415 6.690318 0.399713 0.940700 -0.000000 -52.011800 9.690016 -2.485111 0.298841 10.879147 -15.665108 -5.397331 1.813258 0.248821 14.180002 -2.787895 -12.198224 -11.877187 0.523700 -0.000000 -56.261900
-5.038462 17.073036 -1.385396 5.099101 -79.086617 -3.881503 -10.517729 3.479638 3.599434 0.144658 8.277946 -9.581077 -1.557132 -0.277304 8.327430 0.877287 6.688484 0.393699 0.936000 0.000000 -52.179300 9.681238 -2.470303 0.318717 10.922417 -15.517001 -5.409603 1.814454 0.243661 14.289295 -2.770298 -12.081825 -11.933656 0.536300 0.000001 -56.221900
-5.035471 17.071342 -1.402020 5.258803 -79.359904 -4.079859 -10.528401 3.486651 3.559375 0.203807 8.519839 -9.651395 -1.560965 -0.256885 8.526795 0.875405 6.654422 0.382305 0.926100 -0.000000 -52.315500 9.673434 -2.455301 0.339981 10.966484 -15.367306 -5.419916 1.814513 0.238073 14.406530 -2.754590 -11.973909 -11.994987 0.550100 -0.000000 -56.167600
-5.032763 17.069506 -1.418967 5.428929 -79.627244 -4.293473 -10.537430 3.494701 3.520503 0.264271 8.751418 -9.728538 -1.565314 -0.234060 8.756944 0.871515 6.602067 0.368127 0.913300 -0.000000 -52.411900 9.667247 -2.439469 0.360556 11.008792 -15.218507 -5.426502 1.813168 0.231586 14.534169 -2.740631 -11.874053 -12.061282 0.565100 -0.000000 -56.102500
-5.030044 17.067458 -1.436306 5.613291 -79.888455 -4.530616 -10.544587 3.503513 3.481922 0.325937 8.967093 -9.807638 -1.568764 -0.208243 9.020708 0.867782 6.548795 0.353341 0.900100 0.000000 -52.468300 9.663287 -2.422062 0.377977 11.046298 -15.074608 -5.427212 1.810318 0.223548 14.675385 -2.727776 -11.779385 -12.132737 0.581500 0.000000 -56.031100
-5.027290 17.065109 -1.454108 5.822130 -80.144278 -4.802042 -10.549587 3.513100 3.442732 0.388164 9.164693 -9.884145 -1.570138 -0.179239 9.318804 0.866495 6.513426 0.339667 0.889200 -0.000000 -52.493900 9.662335 -2.402844 0.390381 11.075676 -14.940494 -5.420644 1.806070 0.213534 14.831854 -2.714904 -11.685007 -12.208214 0.598800 0.000000 -55.965600
-5.024186 17.062410 -1.472344 6.061206 -80.397049 -5.118059 -10.552312 3.523248 3.401605 0.450104 9.345879 -9.953429 -1.568486 -0.146963 9.649941 0.869633 6.512453 0.328314 0.882800 0.000001 -52.506600 9.665071 -2.381421 0.395996 11.093441 -14.821057 -5.405528 1.800597 0.201048 15.006059 -2.700711 -11.584871 -12.287410 0.617100 -0.000000 -55.912900
-5.020873 17.059291 -1.490938 6.340889 -80.649591 -5.486991 -10.552810 3.534125 3.357108 0.510974 9.520343 -10.013552 -1.563782 -0.111866 10.010655 0.878223 6.555094 0.319818 0.882200 -0.000000 -52.529700 9.672045 -2.358282 0.394782 11.097157 -14.719232 -5.382381 1.794299 0.185961 15.199290 -2.683808 -11.472222 -12.369737 0.635900 0.000000 -55.882600
-5.017231 17.055698 -1.509725 6.659782 -80.905333 -5.910822 -10.551550 3.545336 3.307307 0.571057 9.703514 -10.064967 -1.556607 -0.074456 10.397446 0.892121 6.640723 0.312235 0.887000 0.000000 -52.585600 9.683257 -2.334030 0.387155 11.086161 -14.637409 -5.351211 1.787660 0.168220 15.410518 -2.662752 -11.340888 -12.452087 0.654400 0.000000 -55.891700
-5.013351 17.051603 -1.528512 7.023039 -81.169286 -6.393321 -10.549061 3.556972 3.250144 0.630049 9.916461 -10.109673 -1.548455 -0.035476 10.804360 0.909955 6.759327 0.305622 0.895800 -0.000000 -52.700500 9.698647 -2.309478 0.375162 11.060319 -14.572882 -5.313759 1.781020 0.147974 15.640573 -2.636854 -11.186796 -12.535243 0.672500 -0.000001 -55.939800
-5.009268 17.047006 -1.547144 7.430505 -81.446555 -6.934692 -10.546084 3.568846 3.183218 0.688733 10.184551 -10.152820 -1.541519 0.004405 11.227400 0.929068 6.890215 0.297834 0.905600 -0.000000 -52.895900 9.717740 -2.285500 0.361571 11.021493 -14.520560 -5.271551 1.774654 0.125546 15.888498 -2.605889 -11.008244 -12.619388 0.690000 0.000000 -56.028300
-5.005157 17.041943 -1.565349 7.874892 -81.740819 -7.526219 -10.543601 3.580823 3.104693 0.749920 10.531649 -10.201249 -1.538225 0.044646 11.664036 0.945952 7.005659 0.286242 0.912300 -0.000000 -53.178800 9.739478 -2.263296 0.349658 10.973882 -14.473508 -5.224522 1.768796 0.101561 16.149884 -2.570125 -10.806619 -12.702428 0.706200 -0.000000 -56.156300
-5.001063 17.036430 -1.583032 8.354518 -82.056896 -8.165267 -10.542304 3.592853 3.012717 0.815229 10.979979 -10.263332 -1.541216 0.085099 12.115285 0.956689 7.074543 0.268918 0.911500 0.000000 -53.552901 9.763005 -2.243531 0.343020 10.921338 -14.421154 -5.173371 1.763299 0.076558 16.422630 -2.530678 -10.586423 -12.785597 0.721300 -0.000000 -56.311701
-4.997168 17.030563 -1.600097 8.865044 -82.397322 -8.846034 -10.542744 3.604879 2.906001 0.887735 11.545421 -10.347996 -1.552677 0.126105 12.587180 0.957730 7.067894 0.244008 0.899101 0.000000 -54.009100 9.787263 -2.226711 0.344968 10.869187 -14.351519 -5.116788 1.757861 0.051186 16.702701 -2.489209 -10.355098 -12.869708 0.735500 -0.000001 -56.480100
-4.993531 17.024446 -1.616572 9.410000 -82.764304 -9.570703 -10.544780 3.616994 2.783948 0.969586 12.234363 -10.463844 -1.574089 0.168613 13.091430 0.946638 6.964411 0.210382 0.872600 0.000000 -54.524200 9.811781 -2.212714 0.357853 10.821288 -14.253488 -5.052142 1.751905 0.026052 16.985972 -2.447559 -10.121178 -12.955758 0.749101 0.000000 -56.644700
